<?xml version="1.0" encoding="UTF-8" standalone="no"?>
<!-- Created with Inkscape (http://www.inkscape.org/) -->

<svg
   xmlns:dc="http://purl.org/dc/elements/1.1/"
   xmlns:cc="http://creativecommons.org/ns#"
   xmlns:rdf="http://www.w3.org/1999/02/22-rdf-syntax-ns#"
   xmlns:svg="http://www.w3.org/2000/svg"
   xmlns="http://www.w3.org/2000/svg"
   xmlns:sodipodi="http://sodipodi.sourceforge.net/DTD/sodipodi-0.dtd"
   xmlns:inkscape="http://www.inkscape.org/namespaces/inkscape"
   width="27.573854"
   height="36"
   viewBox="0 0 27.573855 35.999999"
   version="1.1"
   id="svg853"
   inkscape:version="0.92.2 (5c3e80d, 2017-08-06)"
   sodipodi:docname="bimetrical_icon_clipboard.svg">
  <defs
     id="bimetrical_icon_clipboard" />
  <sodipodi:namedview
     id="base"
     pagecolor="#ffffff"
     bordercolor="#666666"
     borderopacity="1.0"
     inkscape:pageopacity="0.0"
     inkscape:pageshadow="2"
     inkscape:zoom="1.4"
     inkscape:cx="-20.46323"
     inkscape:cy="-54.137794"
     inkscape:document-units="mm"
     inkscape:current-layer="bimetrical-layer-1"
     showgrid="false"
     fit-margin-top="0"
     fit-margin-left="0"
     fit-margin-right="0"
     fit-margin-bottom="0"
     inkscape:window-width="1920"
     inkscape:window-height="1017"
     inkscape:window-x="1912"
     inkscape:window-y="-8"
     inkscape:window-maximized="1" />
  <metadata
     id="-bimetrical-icon-clipboard">
    <rdf:RDF>
      <cc:Work
         rdf:about="">
        <dc:format>image/svg+xml</dc:format>
        <dc:type
           rdf:resource="http://purl.org/dc/dcmitype/StillImage" />
        <dc:title>bimetrical icon clipboard</dc:title>
        <dc:creator>
          <cc:Agent>
            <dc:title>J. Xavier Atero</dc:title>
          </cc:Agent>
        </dc:creator>
        <dc:subject>
          <rdf:Bag>
            <rdf:li>bimetrical</rdf:li>
            <rdf:li>clipboard</rdf:li>
            <rdf:li>icon</rdf:li>
          </rdf:Bag>
        </dc:subject>
        <dc:description>Clipboard icon</dc:description>
        <dc:identifier>bimetrical-icon-clipboard</dc:identifier>
        <dc:rights>
          <cc:Agent>
            <dc:title>Bimetrical S.L.</dc:title>
          </cc:Agent>
        </dc:rights>
        <dc:date>2018-03-18T22:51:00</dc:date>
        <dc:publisher>
          <cc:Agent>
            <dc:title>Bimetrical S.L.</dc:title>
          </cc:Agent>
        </dc:publisher>
        <cc:license
           rdf:resource="http://creativecommons.org/licenses/by-sa/4.0/" />
        <dc:source>J. Xavier Atero's own work for Bimetrical S.L.</dc:source>
        <dc:language>english</dc:language>
      </cc:Work>
      <cc:License
         rdf:about="http://creativecommons.org/licenses/by-sa/4.0/">
        <cc:permits
           rdf:resource="http://creativecommons.org/ns#Reproduction" />
        <cc:permits
           rdf:resource="http://creativecommons.org/ns#Distribution" />
        <cc:requires
           rdf:resource="http://creativecommons.org/ns#Notice" />
        <cc:requires
           rdf:resource="http://creativecommons.org/ns#Attribution" />
        <cc:permits
           rdf:resource="http://creativecommons.org/ns#DerivativeWorks" />
        <cc:requires
           rdf:resource="http://creativecommons.org/ns#ShareAlike" />
      </cc:License>
    </rdf:RDF>
  </metadata>
  <g
     inkscape:label="Layer 1"
     inkscape:groupmode="layer"
     id="bimetrical-layer-1"
     transform="translate(-79.415306,-66.535859)">
    <path
       style="fill:#000000;fill-opacity:1;stroke-width:0.43951157"
       d="m 91.192159,66.535859 c -1.840063,9.7e-5 -3.331706,1.491741 -3.331803,3.331804 h -2.567828 v 1.036376 c 0,1.158631 0.939326,2.097956 2.097957,2.097956 h 7.556431 c 1.158122,0 2.100058,-0.939325 2.100058,-2.097956 v -1.036376 h -2.522312 c -9.7e-5,-1.840335 -1.492167,-3.33209 -3.332503,-3.331804 z m 0,1.943904 c 0.767239,-0.0011 1.389768,0.620661 1.390001,1.3879 h -2.777901 c 2.37e-4,-0.766418 0.621483,-1.387663 1.3879,-1.3879 z m -9.818246,2.563625 c -1.081386,0 -1.958607,0.877218 -1.958607,1.958607 v 23.508888 c 0,1.08097 0.877221,1.95931 1.958607,1.95931 h 2.10636 v 2.273017 c 0,0.99314 0.799514,1.79265 1.792647,1.79265 h 19.9236 c 0.99313,0 1.79264,-0.79951 1.79264,-1.79265 V 76.901702 c 0,-0.993126 -0.79951,-1.792647 -1.79264,-1.792647 h -2.27232 v -2.10706 c 0,-1.081389 -0.8784,-1.958607 -1.95931,-1.958607 h -3.134336 v 0.365532 c 0,1.313114 -1.067621,2.376659 -2.380158,2.376659 h -8.56339 c -1.313114,0 -2.378058,-1.063545 -2.378058,-2.376659 v -0.365532 z m 21.550287,5.962654 h 1.45092 c 0.39725,0 0.71706,0.319808 0.71706,0.717059 v 22.198014 c 0,0.397265 -0.31981,0.717055 -0.71706,0.717055 H 86.094319 c -0.397251,0 -0.717059,-0.31979 -0.717059,-0.717055 v -1.450922 h 15.58763 c 1.08091,0 1.95931,-0.878408 1.95931,-1.95931 z M 88.293814,78.14325 h 0.0029 c 0.677115,0.02478 1.005836,0.839063 0.535693,1.326979 l -2.869638,3.077613 c -0.332862,0.356931 -0.907488,0.326086 -1.200231,-0.06442 l -1.469132,-1.958607 c -0.674964,-0.842164 0.634278,-1.823728 1.253452,-0.939738 l 0.907527,1.210736 2.231706,-2.394163 c 0.136381,-0.151181 0.326248,-0.243348 0.529394,-0.256994 0.0261,-0.0014 0.05229,-0.0018 0.07843,-7.17e-4 z m 2.806612,2.695274 h 6.926201 c 0.540451,0 0.978954,0.439206 0.978954,0.979653 0,0.540512 -0.438503,0.979657 -0.978954,0.979657 h -6.926201 c -0.540953,0 -0.979653,-0.439145 -0.979653,-0.979657 -4.7e-5,-0.540397 0.4387,-0.979653 0.979653,-0.979653 z m -2.806612,3.181949 h 0.0029 c 0.677115,0.02478 1.005836,0.83906 0.535693,1.326979 l -2.869638,3.077613 c -0.332651,0.357095 -0.907262,0.326584 -1.200231,-0.06373 l -1.469132,-1.959306 c -0.674964,-0.842164 0.634278,-1.823728 1.253452,-0.939738 l 0.907527,1.210736 2.231706,-2.394167 c 0.136381,-0.151177 0.326248,-0.243344 0.529394,-0.25699 0.0261,-0.0014 0.05229,-0.0018 0.07843,-7.17e-4 z m 2.806612,2.695274 h 6.926201 c 0.540451,0 0.978954,0.439156 0.978954,0.979653 0,0.540462 -0.438503,0.979653 -0.978954,0.979653 h -6.926201 c -0.540953,0 -0.979653,-0.439191 -0.979653,-0.979653 -4.7e-5,-0.540451 0.4387,-0.979653 0.979653,-0.979653 z m -2.806612,3.181949 h 0.0029 c 0.677115,0.02477 1.005836,0.839059 0.535693,1.326978 l -2.869638,3.077614 c -0.332651,0.357095 -0.907262,0.326584 -1.200231,-0.06373 l -1.469132,-1.959306 c -0.674899,-0.842157 0.634268,-1.823668 1.253452,-0.939742 l 0.907527,1.21074 2.231706,-2.394167 c 0.136381,-0.151177 0.326248,-0.243345 0.529394,-0.25699 0.0261,-0.0014 0.05229,-0.0018 0.07843,-7.17e-4 z m 2.806612,2.695274 h 6.926201 c 0.540451,0 0.978954,0.439209 0.978954,0.979653 0,0.540512 -0.438503,0.979653 -0.978954,0.979653 h -6.926201 c -0.540953,0 -0.979653,-0.439141 -0.979653,-0.979653 -4.7e-5,-0.540444 0.4387,-0.979653 0.979653,-0.979653 z"
       id="bimetrical-path-clipboard"
       inkscape:connector-curvature="0" />
  </g>
</svg>
